<svg width="24" height="24" viewBox="0 0 24 24" fill="none" xmlns="http://www.w3.org/2000/svg">
<g clip-path="url(#clip0_1197_2)">
<path d="M22.413 18.855L15 6.5025V1.5H15.75C16.1625 1.5 16.5 1.1625 16.5 0.75C16.5 0.3375 16.1625 0 15.75 0H8.25C7.8375 0 7.5 0.3375 7.5 0.75C7.5 1.1625 7.8375 1.5 8.25 1.5H9V6.5025L1.587 18.855C-0.111 21.684 1.2 24 4.5 24H19.5C22.8 24 24.111 21.6855 22.413 18.855ZM5.649 15L10.5 6.915V1.5H13.5V6.915L18.351 15H5.649Z" fill="#212121"/>
</g>
<defs>
<clipPath id="clip0_1197_2">
<rect width="24" height="24" fill="white"/>
</clipPath>
</defs>
</svg>
